<svg xmlns="http://www.w3.org/2000/svg" xmlns:xlink="http://www.w3.org/1999/xlink" width="50" height="50" viewBox="0 0 50 50" fill="none"><defs><rect id="path_0" x="0" y="0" width="50" height="50" /></defs><g opacity="1" transform="translate(0 0)  rotate(0 25 25)"><mask id="bg-mask-0" fill="white"><use xlink:href="#path_0"></use></mask><g mask="url(#bg-mask-0)" ><path id="分组 1" fill-rule="evenodd" style="fill:#FFFFFF" transform="translate(4.166666650390581 5.131541848679774)  rotate(0 20.833333349609372 19.309229075660127)" opacity="1" d="M24.14 7.37L17.53 7.37L10.78 0.61L10.78 0.61C9.96 -0.2 8.64 -0.2 7.83 0.61C7.01 1.42 7.01 2.74 7.83 3.56L11.64 7.37L7.29 7.37C3.26 7.37 0 10.63 0 14.66L0 31.33C0 35.35 3.26 38.62 7.29 38.62L34.38 38.62C38.4 38.62 41.67 35.35 41.67 31.33L41.67 14.66C41.67 10.63 38.4 7.37 34.38 7.37L30.03 7.37L33.84 3.56C34.65 2.75 34.65 1.43 33.84 0.61C33.03 -0.2 31.71 -0.2 30.89 0.61L24.14 7.37Z M4.16667 31.3251C4.16667 32.9351 5.38667 34.2851 6.98667 34.4351L7.29667 34.4551L34.3767 34.4551C35.9867 34.4551 37.3267 33.2251 37.4867 31.6251L37.4967 31.3251L37.4967 14.6551C37.4967 12.9351 36.0967 11.5351 34.3767 11.5351L7.29667 11.5351C5.68667 11.5351 4.33667 12.7551 4.17667 14.3551L4.16667 14.6551L4.16667 31.3251Z M10.4167 19.8651L10.4167 24.0351C10.4167 25.1851 11.3467 26.1151 12.4967 26.1151C13.6467 26.1151 14.5867 25.1851 14.5867 24.0351L14.5867 19.8651C14.5867 18.7151 13.6467 17.7851 12.4967 17.7851C11.3467 17.7851 10.4167 18.7151 10.4167 19.8651Z M27.0833 19.8651L27.0833 24.0351C27.0833 25.1851 28.0133 26.1151 29.1633 26.1151C30.3133 26.1151 31.2533 25.1851 31.2533 24.0351L31.2533 19.8651C31.2533 18.7151 30.3133 17.7851 29.1633 17.7851C28.0133 17.7851 27.0833 18.7151 27.0833 19.8651Z " /></g></g></svg>