<svg xmlns="http://www.w3.org/2000/svg" xmlns:xlink="http://www.w3.org/1999/xlink" width="51" height="51" viewBox="0 0 51 51" fill="none"><defs><rect id="path_0" x="0" y="0" width="51" height="51" /></defs><g opacity="1" transform="translate(0 0)  rotate(0 25.5 25.5)"><mask id="bg-mask-0" fill="white"><use xlink:href="#path_0"></use></mask><g mask="url(#bg-mask-0)" ><path id="路径 1" fill-rule="evenodd" style="fill:#FFFFFF" transform="translate(4.249334391749562 5.173397145820076)  rotate(0 21.250665608250305 20.788301435390775)" opacity="1" d="M38.25,37.35L4.31,37.35C4.26,37.3 4.24,37.23 4.25,37.17L4.25,26.86C4.25,25.69 3.3,24.74 2.13,24.74C0.95,24.74 0,25.69 0,26.86L0,37.17C-0.04,39.56 1.86,41.53 4.25,41.58L38.25,41.58C40.64,41.53 42.54,39.56 42.5,37.17L42.5,11.99C42.54,9.6 40.64,7.62 38.25,7.58L32.76,7.58L36.82,3.51C37.54,2.66 37.49,1.41 36.7,0.62C35.92,-0.16 34.66,-0.21 33.82,0.51L26.74,7.58L15.76,7.58L8.68,0.51C7.84,-0.21 6.58,-0.16 5.8,0.62C5.01,1.41 4.96,2.66 5.69,3.51L9.74,7.58L4.25,7.58C1.86,7.62 -0.04,9.6 0,11.99L0,17.71C0,18.89 0.95,19.84 2.13,19.84C3.3,19.84 4.25,18.89 4.25,17.71L4.25,11.99L4.25,11.83L38.19,11.83C38.23,11.88 38.25,11.94 38.25,12.01L38.25,37.35Z " /><path id="分组 1" fill-rule="evenodd" style="fill:#FFFFFF" transform="translate(18.06241361587758 22.293379302715017)  rotate(0 6.923162598350033 7.447190604483613)" opacity="1" d="M13.85 7.46C13.85 6.68 13.43 5.97 12.75 5.6L3.19 0.28C2.53 -0.1 1.71 -0.09 1.05 0.29C0.4 0.67 -0.01 1.38 0 2.14L0 12.77C0 13.52 0.41 14.22 1.06 14.6C1.38 14.79 1.75 14.89 2.13 14.89C2.5 14.9 2.86 14.81 3.19 14.63L12.75 9.32C13.43 8.94 13.85 8.23 13.85 7.46Z M4.25009 9.15662L7.31009 7.45662L4.25009 5.75662L4.25009 9.15662Z " /></g></g></svg>