<svg xmlns="http://www.w3.org/2000/svg" xmlns:xlink="http://www.w3.org/1999/xlink" width="45" height="45" viewBox="0 0 45 45" fill="none"><defs><rect id="path_0" x="0" y="0" width="45" height="45" /></defs><g opacity="1" transform="translate(0 0)  rotate(0 22.5 22.5)"><mask id="bg-mask-0" fill="white"><use xlink:href="#path_0"></use></mask><g mask="url(#bg-mask-0)" ><path id="分组 1" fill-rule="evenodd" style="fill:#FFFFFF" transform="translate(3.7499999853515247 3.7499999853516277)  rotate(0 18.750000014648435 18.750000014648435)" opacity="1" d="M37.5 18.75C37.5 8.39 29.11 0 18.75 0C8.39 0 0 8.39 0 18.75C0 29.11 8.39 37.5 18.75 37.5C29.11 37.5 37.5 29.11 37.5 18.75Z M34.6925 18.7525C34.6925 9.9525 27.5525 2.8125 18.7525 2.8125C9.9525 2.8125 2.8125 9.9525 2.8125 18.7525C2.8125 27.5525 9.9525 34.6925 18.7525 34.6925C27.5525 34.6925 34.6925 27.5525 34.6925 18.7525Z M19.1065 23.0165C19.3665 23.2965 19.7365 23.4565 20.1165 23.4665C20.4965 23.4765 20.8665 23.3265 21.1465 23.0565L28.1865 15.9965C28.5465 15.6365 28.6965 15.1165 28.5665 14.6265C28.4365 14.1365 28.0465 13.7465 27.5565 13.6265C27.0665 13.4965 26.5465 13.6365 26.1965 14.0065L20.1865 20.0265L16.5965 16.1065C16.3365 15.8265 15.9665 15.6565 15.5765 15.6565C15.1865 15.6465 14.8165 15.8065 14.5465 16.0865L9.29651 21.5265C8.76651 22.0865 8.77651 22.9765 9.33651 23.5165C9.89651 24.0465 10.7865 24.0365 11.3265 23.4765L15.5365 19.1165L19.1065 23.0165L19.1065 23.0165Z " /></g></g></svg>