<svg xmlns="http://www.w3.org/2000/svg" xmlns:xlink="http://www.w3.org/1999/xlink" width="50" height="50" viewBox="0 0 50 50" fill="none"><defs><rect id="path_0" x="0" y="0" width="50" height="50" /></defs><g opacity="1" transform="translate(0 0)  rotate(0 25 25)"><mask id="bg-mask-0" fill="white"><use xlink:href="#path_0"></use></mask><g mask="url(#bg-mask-0)" ><g opacity="1" transform="translate(4.695111669921907 6.248950097656127)  rotate(0 20.309087890624998 19.53216865234375)"><path id="路径 1" fill-rule="evenodd" style="fill:#FFFFFF" transform="translate(0 0)  rotate(0 20.309087890624998 19.53216865234375)" opacity="1" d="M4.69,34.37L9.37,34.37C10.24,34.37 10.94,33.67 10.94,32.81C10.94,31.94 10.24,31.24 9.37,31.24L4.69,31.24C3.83,31.24 3.12,30.55 3.12,29.68L3.12,4.69C3.12,3.83 3.83,3.12 4.69,3.12L35.93,3.12C36.8,3.12 37.49,3.83 37.49,4.69L37.49,29.68C37.49,30.55 36.8,31.24 35.93,31.24L25,31.24C24.58,31.24 24.18,31.41 23.89,31.71L20.3,35.29L16.71,31.71C16.1,31.09 15.12,31.09 14.51,31.71C13.89,32.32 13.89,33.3 14.51,33.92L19.19,38.6C19.5,38.91 19.9,39.06 20.3,39.06C20.7,39.06 21.11,38.9 21.41,38.6L25.63,34.37L35.93,34.37C38.52,34.37 40.62,32.27 40.62,29.68L40.62,4.69C40.62,2.1 38.52,0 35.93,0L4.69,0C2.1,0 0,2.1 0,4.69L0,29.68C0,32.27 2.1,34.37 4.69,34.37Z " /><path id="路径 2" fill-rule="evenodd" style="fill:#FFFFFF" transform="translate(9.365026074218726 14.06013774414063)  rotate(0 2.3433562988281254 2.3433562988281254)" opacity="1" d="M4.69,2.34C4.69,1.05 3.64,0 2.34,0C1.05,0 0,1.05 0,2.34C0,3.64 1.05,4.69 2.34,4.69C3.64,4.69 4.69,3.64 4.69,2.34Z " /><path id="路径 3" fill-rule="evenodd" style="fill:#FFFFFF" transform="translate(18.738451220703052 14.06013774414063)  rotate(0 2.3433562988281254 2.3433562988281254)" opacity="1" d="M4.69,2.34C4.69,1.05 3.64,0 2.34,0C1.05,0 0,1.05 0,2.34C0,3.64 1.05,4.69 2.34,4.69C3.64,4.69 4.69,3.64 4.69,2.34Z " /><path id="路径 4" fill-rule="evenodd" style="fill:#FFFFFF" transform="translate(28.120275537109404 14.06013774414063)  rotate(0 2.3433562988281254 2.3433562988281254)" opacity="1" d="M4.69,2.34C4.69,1.05 3.64,0 2.34,0C1.05,0 0,1.05 0,2.34C0,3.64 1.05,4.69 2.34,4.69C3.63,4.69 4.69,3.64 4.69,2.34Z " /></g></g></g></svg>